<svg xmlns="http://www.w3.org/2000/svg" height="256" width="256">
   <path fill="#099" d="M115.146 4c62.208 0 112.896 49.354 115.062 111.021-4.75-2.604-9.792-4.771-15.062-6.417.167-1.833.667-2.312 1.188-4.562l3.667.396c-5.583-41.417-34.583-75.417-73.208-88.271h0l-14.187 4.125v-3.75h-2.5L130 20.021l-5.562 1.521-.708 2.604-7.437-6.125 10.021 1.021c-1.729-2.354-12.292-6.25-16.25-6.25h-3.75c-4.042 0-16.771 10.708-22.542 13.75l1.354 6.542 7.292-1.5 1.125 5.375-4.729-2.937c-.021.021-1.25 2.333-1.25 2.5 0 2.854.417 1.458.771 4.083l-18.271 8.417v2.5l1.354-.833 3.646 8.333h-11.25v12.5c4.958.417 3.021 1.25 6.25 1.25 4.854 0 6.125-2.333 6.771-6.979l6.021-5.771 6.104-2.396 10.188 10.688-4.083 1.958c4.375 6.062 4.5-2.583 5.542-5.583l-7.937-8.333 1.229-1.208 9.312 6.646 4.333 11c1.104-.625 2.5-.812 2.5-2.5 0-2.854-.417-1.458-1.208-4.854l4.333-1.146 4.354 9.5 10.021-.979c0 4.958-.25 11.25-5 11.25h-2.5c-6.896 0-8.354-2.5-13.958-3.812l-1.167 5.333-12.375-5.271v-8.75h-11.25c-4.083 0-3.292 3.75-10 3.75l-3.125.542-5.625 5.729v6.25c-4.083 2.729-10 9.771-10 16.25v15c0 1.771 7.979 16.25 12.5 16.25h5c5.458 0 4.542-2.5 10-2.5h1.25c3.458 0 3 .958 3.75 3.75h5v10c0 1.583 6.25 10.229 6.25 16.25 0 6.521-2.5 7.229-2.5 12.5 0 6.208 6.25 18.729 6.25 27.5h7.5a11.06 11.06 0 0 0 2.75-.354c2.229 11.562 6.875 22.25 13.396 31.542-2.833.208-5.708.313-8.583.313C51.563 234.271 0 182.729 0 119.146S51.563 4 115.146 4zm75.625 117.625c36.021 0 65.229 29.208 65.229 65.229s-29.208 65.229-65.229 65.229-65.229-29.208-65.229-65.229 29.208-65.229 65.229-65.229zm-9.042 36.688h7.979c1.458 0 2.646 1.208 2.646 2.646v26.437h25.896c1.458 0 2.646 1.208 2.646 2.646v7.979c0 1.458-1.208 2.646-2.646 2.646h-39.187v-39.688a2.66 2.66 0 0 1 2.667-2.667zm9.042-21.875c27.854 0 50.417 22.563 50.417 50.417s-22.562 50.417-50.417 50.417-50.417-22.562-50.417-50.417c0-27.833 22.563-50.417 50.417-50.417zm9.562-30.958l-1.167-3.604-3.083 3.208c1.437.104 2.854.229 4.25.396zm-22.25.417l-.562-3.167-2.667 1.938-6.042-8.146-9.021.271-3.458-3.958-3.542.979-6.958-7.979-1.333.917 4.313 11.021h5v-2.5h2.5c1.813 4.979 3.75 2.021 3.75 5 0 10.396-12.833 18.042-21.25 20 .229 1 .292 1.979.625 2.687 10.938-8.75 24.167-14.812 38.646-17.062zM22.042 178.625c-6.792-10.292-11.854-21.812-14.833-34.146l20.271 9.771.104 6.042c0 2.229-3.792 6.958-5 8.75z" fill-rule="evenodd"/>
</svg>